<svg xmlns="http://www.w3.org/2000/svg" width="1788" height="688" viewBox="0 0 1788 688" version="1.1"><path d="" stroke="none" fill="#080404" fill-rule="evenodd"/><path d="M 1370.609 165.553 C 1307.993 174.079, 1270.071 211.380, 1270.015 264.500 C 1269.975 301.451, 1286.185 328.956, 1317.225 344.609 L 1323.950 348 1406.876 348 L 1489.802 348 1491.867 344.500 C 1493.796 341.231, 1494.268 341, 1499.006 341 C 1502.170 341, 1505.613 340.218, 1508.152 338.922 L 1512.225 336.844 1509.363 333.820 C 1501.476 325.489, 1483.639 315.576, 1465.960 309.700 C 1460.207 307.788, 1442.450 303.432, 1426.500 300.020 C 1390.247 292.265, 1380.793 289.833, 1372.793 286.206 C 1360.909 280.817, 1355.234 273.667, 1354.252 262.846 C 1353.512 254.687, 1355.409 248.874, 1360.749 242.935 C 1365.740 237.383, 1375.964 231.926, 1384.799 230.097 C 1388.322 229.368, 1411.534 229, 1454.049 229 C 1500.863 229, 1518 228.698, 1518 227.872 C 1518 226.093, 1512.138 216.119, 1506.908 209 C 1492.134 188.890, 1468.432 174.306, 1440.118 167.905 C 1423.125 164.064, 1389.823 162.937, 1370.609 165.553 M 356.864 166.750 C 358.203 169.257, 364 181.981, 364 182.412 C 364 182.610, 365.972 186.987, 368.383 192.136 C 373.357 202.763, 375.051 206.476, 382.925 224 C 386.013 230.875, 388.895 237.063, 389.329 237.750 C 389.946 238.728, 403.292 239, 450.550 239 L 510.983 239 511.241 293.250 L 511.500 347.500 554.750 347.761 L 598 348.021 598 293.511 L 598 239 647.660 239 L 697.320 239 696.660 214.838 C 696.297 201.549, 696 184.899, 696 177.838 L 696 165 525.965 165 C 364.337 165, 355.976 165.087, 356.864 166.750 M 717 256.511 L 717 348.021 760.250 347.761 L 803.500 347.500 803.796 316 C 804.219 271.015, 802.637 254.805, 795.857 234.605 C 785.662 204.234, 769.309 184.502, 744.844 173.053 C 736.995 169.381, 722.835 165, 718.812 165 C 717.076 165, 717 168.838, 717 256.511 M 328.291 168.432 C 310.751 176.643, 290.599 197.202, 273.332 224.500 C 261.037 243.937, 250.707 264.807, 224.326 323.500 C 219.629 333.950, 212.854 349.025, 209.270 357 C 205.686 364.975, 200.398 376.900, 197.518 383.500 C 194.638 390.100, 191.365 397.525, 190.244 400 C 189.124 402.475, 187.530 406.075, 186.701 408 C 185.873 409.925, 181.295 420.500, 176.528 431.500 C 157.862 474.567, 148 497.881, 148 498.936 C 148 499.554, 148.987 499.828, 150.250 499.558 C 151.488 499.295, 155.200 498.556, 158.500 497.917 C 168.120 496.055, 185.919 490.551, 198.681 485.492 C 220.045 477.023, 239.219 465.610, 254.335 452.365 C 271.206 437.584, 274.839 434.674, 284.367 428.318 C 289.793 424.698, 299.602 419.064, 306.164 415.797 C 317.767 410.020, 340.372 401.891, 348.547 400.554 L 352.595 399.893 354.744 404.696 C 355.926 407.338, 359.374 415.049, 362.406 421.832 C 369.758 438.277, 373.617 444.939, 381.375 454.586 C 400.362 478.194, 425.706 493.625, 453.435 498.461 C 462.665 500.070, 483 500.580, 483 499.202 C 483 498.763, 479.011 489.650, 474.135 478.952 C 469.259 468.253, 464.255 457.250, 463.015 454.500 C 461.774 451.750, 458.618 444.775, 456 439 C 453.382 433.225, 450.234 426.250, 449.003 423.500 C 447.773 420.750, 444.794 414.286, 442.383 409.136 C 439.972 403.987, 438 399.612, 438 399.416 C 438 399.220, 436.802 396.458, 435.339 393.280 C 433.875 390.101, 430.315 382.325, 427.428 376 L 422.179 364.500 403.340 364.569 C 358.412 364.732, 313.813 375.380, 286.665 392.424 L 278.311 397.669 286.202 380.085 C 290.542 370.413, 294.704 361.150, 295.451 359.500 C 296.197 357.850, 300.711 347.725, 305.481 337 C 310.252 326.275, 314.460 317.183, 314.832 316.795 C 315.205 316.407, 319.294 324.282, 323.920 334.295 C 328.546 344.308, 332.890 353.117, 333.572 353.871 C 334.622 355.031, 336.213 354.985, 343.891 353.574 C 360.453 350.530, 375.283 349.022, 395.250 348.349 C 406.113 347.984, 415 347.316, 415 346.867 C 415 346.086, 400.897 313.411, 394.869 300.225 C 393.291 296.774, 392 293.768, 392 293.545 C 392 293.322, 390.705 290.296, 389.122 286.820 C 386.339 280.709, 382.468 271.952, 375.387 255.750 C 373.524 251.488, 370.476 244.512, 368.613 240.250 C 366.750 235.988, 363.549 228.675, 361.500 224 C 359.451 219.325, 356.250 212.012, 354.387 207.750 C 345.559 187.551, 343.958 183.903, 340.227 175.500 C 338.030 170.550, 335.617 166.386, 334.866 166.246 C 334.115 166.107, 331.156 167.090, 328.291 168.432 M 1163.628 167.573 C 1104.667 176.742, 1054.299 217.893, 1033.976 273.500 C 1032.971 276.250, 1028.458 289.975, 1023.948 304 C 1019.437 318.025, 1014.454 333.444, 1012.874 338.265 C 1011.293 343.086, 1010 347.248, 1010 347.515 C 1010 347.782, 1030.925 348, 1056.500 348 C 1082.075 348, 1103 347.880, 1103 347.734 C 1103 347.485, 1107.650 334.159, 1115.469 312 C 1117.312 306.775, 1120.985 296.321, 1123.629 288.769 C 1126.274 281.217, 1128.718 275.367, 1129.059 275.769 C 1129.400 276.171, 1130.171 277.850, 1130.772 279.500 C 1135.153 291.524, 1144.602 317.696, 1148.464 328.500 C 1151.019 335.650, 1153.753 342.962, 1154.539 344.750 L 1155.968 348 1201.592 348 L 1247.217 348 1246.561 345.250 C 1245.924 342.580, 1235.131 308.741, 1228.459 288.500 C 1226.647 283, 1220.825 265, 1215.523 248.500 C 1210.221 232, 1205.489 217.375, 1205.006 216 C 1204.523 214.625, 1200.674 202.813, 1196.451 189.750 L 1188.774 166 1180.637 166.097 C 1176.162 166.150, 1168.507 166.815, 1163.628 167.573 M 1531 335.922 C 1531 338.339, 1531.563 339.026, 1534.250 339.889 C 1539.391 341.539, 1546 342.843, 1546 342.206 C 1546 339.974, 1540.997 334.840, 1538 333.996 C 1532.142 332.347, 1531 332.662, 1531 335.922 M 1513.715 339.964 C 1511.393 341.695, 1508.103 342.994, 1504.992 343.407 C 1500.447 344.010, 1499.863 344.392, 1498.499 347.657 C 1497.675 349.630, 1497 351.556, 1497 351.937 C 1497 352.317, 1503.862 351.379, 1512.250 349.852 C 1520.638 348.325, 1527.639 347.059, 1527.809 347.038 C 1528.595 346.942, 1526.598 344.849, 1522.218 341.183 L 1517.443 337.185 1513.715 339.964 M 1540.211 355.750 L 1540.500 364.500 1559.209 364.772 C 1572.726 364.968, 1579.874 364.636, 1584.968 363.574 C 1592.284 362.048, 1604 357.333, 1604 355.915 C 1604 354.594, 1591.937 349.301, 1586.201 348.105 C 1583.286 347.497, 1571.681 347, 1560.412 347 L 1539.922 347 1540.211 355.750 M 1515.362 362.500 C 1515.869 363.823, 1508.539 364.008, 1453.219 364.068 C 1418.345 364.105, 1391.388 364.509, 1392.500 364.976 C 1393.600 365.438, 1400.350 367.048, 1407.500 368.553 C 1414.650 370.058, 1422.760 372.065, 1425.522 373.012 C 1438.219 377.369, 1447.267 384.118, 1450.613 391.727 C 1452.772 396.639, 1452.738 407.268, 1450.546 412.355 C 1448.189 417.827, 1440.447 425.170, 1433.641 428.390 C 1422.288 433.761, 1419.495 433.964, 1356.643 433.983 C 1310.784 433.996, 1298.881 434.259, 1299.246 435.250 C 1299.945 437.148, 1304.305 450.791, 1309.552 467.500 C 1312.143 475.750, 1315.513 486.325, 1317.042 491 L 1319.822 499.500 1367.661 499.812 C 1398.869 500.016, 1419.150 499.728, 1426 498.983 C 1480.668 493.036, 1522.377 463.238, 1534.476 421.486 C 1535.897 416.583, 1537.501 408.310, 1538.041 403.102 L 1539.023 393.632 1532.692 387.566 C 1524.142 379.374, 1522.667 377.006, 1523.973 373.570 C 1525.247 370.221, 1525.271 369, 1524.065 369 C 1522.316 369, 1517.720 366.946, 1518.260 366.406 C 1519.825 364.841, 1527.313 368.437, 1531.536 372.782 L 1536.121 377.500 1535.477 373 C 1535.122 370.525, 1534.349 366.813, 1533.758 364.750 L 1532.683 361 1523.735 361 C 1516.191 361, 1514.876 361.236, 1515.362 362.500 M 511.297 381.750 C 512.189 409.676, 516.266 428.369, 525.606 447.344 C 539.088 474.736, 560.292 491.922, 588.748 498.521 C 592.255 499.335, 595.771 500, 596.562 500 C 597.799 500, 598 490.474, 598 432 L 598 364 554.365 364 L 510.731 364 511.297 381.750 M 717 432.004 L 717 500.009 829.734 499.754 L 942.468 499.500 945.133 490.500 C 947.729 481.735, 952.632 465.706, 957.675 449.500 C 959.044 445.100, 960.983 438.733, 961.983 435.352 C 962.983 431.970, 964.101 428.258, 964.468 427.102 L 965.135 425 884.567 425 L 804 425 804 394.500 L 804 364 760.500 364 L 717 364 717 432.004 M 1005.192 368.250 C 1003.195 374.802, 990.141 415.638, 987.529 423.500 C 986.251 427.350, 981.530 441.975, 977.038 456 C 967.064 487.146, 963.847 497.120, 963.246 498.750 C 962.882 499.739, 972.803 500, 1010.763 500 L 1058.741 500 1062.022 488.750 C 1063.827 482.563, 1068.067 468.050, 1071.445 456.500 L 1077.585 435.500 1130.414 435.500 L 1183.242 435.500 1191.109 462.500 C 1195.435 477.350, 1199.717 491.863, 1200.625 494.750 L 1202.274 500 1249.970 500 C 1276.203 500, 1297.937 499.730, 1298.266 499.400 C 1298.596 499.070, 1298.470 497.833, 1297.986 496.650 C 1297.502 495.468, 1292.324 479.650, 1286.480 461.500 C 1280.636 443.350, 1275.027 426.025, 1274.016 423 C 1273.006 419.975, 1268.293 405.462, 1263.545 390.750 L 1254.911 364 1130.699 364 L 1006.487 364 1005.192 368.250" stroke="none" fill="#040404" fill-rule="evenodd"/></svg>