<svg xmlns="http://www.w3.org/2000/svg" width="631" height="532" viewBox="0 0 631 532" version="1.1"><path d="M 332.817 52.253 C 302.371 67.919, 272.601 105.383, 244.416 163.500 C 214.065 226.084, 122.812 430.146, 124.446 431.780 C 125.448 432.781, 149.661 427.048, 164.193 422.368 C 181.087 416.928, 196.131 410.692, 209.766 403.475 C 227.568 394.053, 235.508 388.311, 262.189 365.561 C 280.272 350.143, 306.119 335.102, 329.109 326.619 C 340.075 322.572, 353.596 318.552, 359.574 317.560 L 363.648 316.884 373.557 338.692 C 379.173 351.052, 386.044 364.399, 389.417 369.500 C 396.686 380.495, 417.230 401.330, 428.113 408.744 C 443.885 419.489, 462.981 427.411, 480.504 430.479 C 491.279 432.366, 512.992 433.489, 514.760 432.252 C 515.705 431.590, 507.096 412.060, 480.233 353.935 L 444.447 276.500 425.973 276.738 C 385.671 277.256, 346.389 283.724, 317.107 294.664 C 305.392 299.040, 289.501 306.909, 281.750 312.171 C 278.587 314.318, 276 315.862, 276 315.601 C 276 315.113, 300.967 259.823, 312.946 233.784 L 319.716 219.068 323.538 227.284 C 325.640 231.803, 330.618 242.297, 334.601 250.605 L 341.842 265.709 351.171 263.917 C 371.704 259.973, 403.063 257.029, 424.750 257.010 C 430.938 257.004, 436 256.597, 436 256.104 C 436 255.612, 426.710 234.349, 415.355 208.854 C 404.001 183.359, 383.320 136.850, 369.399 105.500 C 355.110 73.321, 343.473 48.370, 342.677 48.202 C 341.902 48.039, 337.464 49.861, 332.817 52.253" stroke="none" fill="#fffcfc" fill-rule="evenodd"/><path d="" stroke="none" fill="#fcfcfc" fill-rule="evenodd"/></svg>