<svg xmlns="http://www.w3.org/2000/svg" width="1500" height="600" viewBox="0 0 1500 600" version="1.1"><path d="M 1236.609 133.553 C 1173.993 142.079, 1136.071 179.380, 1136.015 232.500 C 1135.975 269.451, 1152.185 296.956, 1183.225 312.609 L 1189.950 316 1272.876 316 L 1355.802 316 1357.867 312.500 C 1359.796 309.231, 1360.268 309, 1365.006 309 C 1368.170 309, 1371.613 308.218, 1374.152 306.922 L 1378.225 304.844 1375.363 301.820 C 1367.476 293.489, 1349.639 283.576, 1331.960 277.700 C 1326.207 275.788, 1308.450 271.432, 1292.500 268.020 C 1256.247 260.265, 1246.793 257.833, 1238.793 254.206 C 1226.909 248.817, 1221.234 241.667, 1220.252 230.846 C 1219.512 222.687, 1221.409 216.874, 1226.749 210.935 C 1231.740 205.383, 1241.964 199.926, 1250.799 198.097 C 1254.322 197.368, 1277.534 197, 1320.049 197 C 1366.863 197, 1384 196.698, 1384 195.872 C 1384 194.093, 1378.138 184.119, 1372.908 177 C 1358.134 156.890, 1334.432 142.306, 1306.118 135.905 C 1289.125 132.064, 1255.823 130.937, 1236.609 133.553 M 222.864 134.750 C 224.203 137.257, 230 149.981, 230 150.412 C 230 150.610, 231.972 154.987, 234.383 160.136 C 239.357 170.763, 241.051 174.476, 248.925 192 C 252.013 198.875, 254.895 205.063, 255.329 205.750 C 255.946 206.728, 269.292 207, 316.550 207 L 376.983 207 377.241 261.250 L 377.500 315.500 420.750 315.761 L 464 316.021 464 261.511 L 464 207 513.660 207 L 563.320 207 562.660 182.838 C 562.297 169.549, 562 152.899, 562 145.838 L 562 133 391.965 133 C 230.337 133, 221.976 133.087, 222.864 134.750 M 583 224.511 L 583 316.021 626.250 315.761 L 669.500 315.500 669.796 284 C 670.219 239.015, 668.637 222.805, 661.857 202.605 C 651.662 172.234, 635.309 152.502, 610.844 141.053 C 602.995 137.381, 588.835 133, 584.812 133 C 583.076 133, 583 136.838, 583 224.511 M 194.291 136.432 C 176.751 144.643, 156.599 165.202, 139.332 192.500 C 127.037 211.937, 116.707 232.807, 90.326 291.500 C 85.629 301.950, 78.854 317.025, 75.270 325 C 71.686 332.975, 66.398 344.900, 63.518 351.500 C 60.638 358.100, 57.365 365.525, 56.244 368 C 55.124 370.475, 53.530 374.075, 52.701 376 C 51.873 377.925, 47.295 388.500, 42.528 399.500 C 23.862 442.567, 14 465.881, 14 466.936 C 14 467.554, 14.987 467.828, 16.250 467.558 C 17.488 467.295, 21.200 466.556, 24.500 465.917 C 34.120 464.055, 51.919 458.551, 64.681 453.492 C 86.045 445.023, 105.219 433.610, 120.335 420.365 C 137.206 405.584, 140.839 402.674, 150.367 396.318 C 155.793 392.698, 165.602 387.064, 172.164 383.797 C 183.767 378.020, 206.372 369.891, 214.547 368.554 L 218.595 367.893 220.744 372.696 C 221.926 375.338, 225.374 383.049, 228.406 389.832 C 235.758 406.277, 239.617 412.939, 247.375 422.586 C 266.362 446.194, 291.706 461.625, 319.435 466.461 C 328.665 468.070, 349 468.580, 349 467.202 C 349 466.763, 345.011 457.650, 340.135 446.952 C 335.259 436.253, 330.255 425.250, 329.015 422.500 C 327.774 419.750, 324.618 412.775, 322 407 C 319.382 401.225, 316.234 394.250, 315.003 391.500 C 313.773 388.750, 310.794 382.286, 308.383 377.136 C 305.972 371.987, 304 367.612, 304 367.416 C 304 367.220, 302.802 364.458, 301.339 361.280 C 299.875 358.101, 296.315 350.325, 293.428 344 L 288.179 332.500 269.340 332.569 C 224.412 332.732, 179.813 343.380, 152.665 360.424 L 144.311 365.669 152.202 348.085 C 156.542 338.413, 160.704 329.150, 161.451 327.500 C 162.197 325.850, 166.711 315.725, 171.481 305 C 176.252 294.275, 180.460 285.183, 180.832 284.795 C 181.205 284.407, 185.294 292.282, 189.920 302.295 C 194.546 312.308, 198.890 321.117, 199.572 321.871 C 200.622 323.031, 202.213 322.985, 209.891 321.574 C 226.453 318.530, 241.283 317.022, 261.250 316.349 C 272.113 315.984, 281 315.316, 281 314.867 C 281 314.086, 266.897 281.411, 260.869 268.225 C 259.291 264.774, 258 261.768, 258 261.545 C 258 261.322, 256.705 258.296, 255.122 254.820 C 252.339 248.709, 248.468 239.952, 241.387 223.750 C 239.524 219.488, 236.476 212.512, 234.613 208.250 C 232.750 203.988, 229.549 196.675, 227.500 192 C 225.451 187.325, 222.250 180.012, 220.387 175.750 C 211.559 155.551, 209.958 151.903, 206.227 143.500 C 204.030 138.550, 201.617 134.386, 200.866 134.246 C 200.115 134.107, 197.156 135.090, 194.291 136.432 M 1029.628 135.573 C 970.667 144.742, 920.299 185.893, 899.976 241.500 C 898.971 244.250, 894.458 257.975, 889.948 272 C 885.437 286.025, 880.454 301.444, 878.874 306.265 C 877.293 311.086, 876 315.248, 876 315.515 C 876 315.782, 896.925 316, 922.500 316 C 948.075 316, 969 315.880, 969 315.734 C 969 315.485, 973.650 302.159, 981.469 280 C 983.312 274.775, 986.985 264.321, 989.629 256.769 C 992.274 249.217, 994.718 243.367, 995.059 243.769 C 995.400 244.171, 996.171 245.850, 996.772 247.500 C 1001.153 259.524, 1010.602 285.696, 1014.464 296.500 C 1017.019 303.650, 1019.753 310.962, 1020.539 312.750 L 1021.968 316 1067.592 316 L 1113.217 316 1112.561 313.250 C 1111.924 310.580, 1101.131 276.741, 1094.459 256.500 C 1092.647 251, 1086.825 233, 1081.523 216.500 C 1076.221 200, 1071.489 185.375, 1071.006 184 C 1070.523 182.625, 1066.674 170.813, 1062.451 157.750 L 1054.774 134 1046.637 134.097 C 1042.162 134.150, 1034.507 134.815, 1029.628 135.573 M 1397 303.922 C 1397 306.339, 1397.563 307.026, 1400.250 307.889 C 1405.391 309.539, 1412 310.843, 1412 310.206 C 1412 307.974, 1406.997 302.840, 1404 301.996 C 1398.142 300.347, 1397 300.662, 1397 303.922 M 1379.715 307.964 C 1377.393 309.695, 1374.103 310.994, 1370.992 311.407 C 1366.447 312.010, 1365.863 312.392, 1364.499 315.657 C 1363.675 317.630, 1363 319.556, 1363 319.937 C 1363 320.317, 1369.862 319.379, 1378.250 317.852 C 1386.638 316.325, 1393.639 315.059, 1393.809 315.038 C 1394.595 314.942, 1392.598 312.849, 1388.218 309.183 L 1383.443 305.185 1379.715 307.964 M 1406.211 323.750 L 1406.500 332.500 1425.209 332.772 C 1438.726 332.968, 1445.874 332.636, 1450.968 331.574 C 1458.284 330.048, 1470 325.333, 1470 323.915 C 1470 322.594, 1457.937 317.301, 1452.201 316.105 C 1449.286 315.497, 1437.681 315, 1426.412 315 L 1405.922 315 1406.211 323.750 M 1381.362 330.500 C 1381.869 331.823, 1374.539 332.008, 1319.219 332.068 C 1284.345 332.105, 1257.388 332.509, 1258.500 332.976 C 1259.600 333.438, 1266.350 335.048, 1273.500 336.553 C 1280.650 338.058, 1288.760 340.065, 1291.522 341.012 C 1304.219 345.369, 1313.267 352.118, 1316.613 359.727 C 1318.772 364.639, 1318.738 375.268, 1316.546 380.355 C 1314.189 385.827, 1306.447 393.170, 1299.641 396.390 C 1288.288 401.761, 1285.495 401.964, 1222.643 401.983 C 1176.784 401.996, 1164.881 402.259, 1165.246 403.250 C 1165.945 405.148, 1170.305 418.791, 1175.552 435.500 C 1178.143 443.750, 1181.513 454.325, 1183.042 459 L 1185.822 467.500 1233.661 467.812 C 1264.869 468.016, 1285.150 467.728, 1292 466.983 C 1346.668 461.036, 1388.377 431.238, 1400.476 389.486 C 1401.897 384.583, 1403.501 376.310, 1404.041 371.102 L 1405.023 361.632 1398.692 355.566 C 1390.142 347.374, 1388.667 345.006, 1389.973 341.570 C 1391.247 338.221, 1391.271 337, 1390.065 337 C 1388.316 337, 1383.720 334.946, 1384.260 334.406 C 1385.825 332.841, 1393.313 336.437, 1397.536 340.782 L 1402.121 345.500 1401.477 341 C 1401.122 338.525, 1400.349 334.813, 1399.758 332.750 L 1398.683 329 1389.735 329 C 1382.191 329, 1380.876 329.236, 1381.362 330.500 M 377.297 349.750 C 378.189 377.676, 382.266 396.369, 391.606 415.344 C 405.088 442.736, 426.292 459.922, 454.748 466.521 C 458.255 467.335, 461.771 468, 462.562 468 C 463.799 468, 464 458.474, 464 400 L 464 332 420.365 332 L 376.731 332 377.297 349.750 M 583 400.004 L 583 468.009 695.734 467.754 L 808.468 467.500 811.133 458.500 C 813.729 449.735, 818.632 433.706, 823.675 417.500 C 825.044 413.100, 826.983 406.733, 827.983 403.352 C 828.983 399.970, 830.101 396.258, 830.468 395.102 L 831.135 393 750.567 393 L 670 393 670 362.500 L 670 332 626.500 332 L 583 332 583 400.004 M 871.192 336.250 C 869.195 342.802, 856.141 383.638, 853.529 391.500 C 852.251 395.350, 847.530 409.975, 843.038 424 C 833.064 455.146, 829.847 465.120, 829.246 466.750 C 828.882 467.739, 838.803 468, 876.763 468 L 924.741 468 928.022 456.750 C 929.827 450.563, 934.067 436.050, 937.445 424.500 L 943.585 403.500 996.414 403.500 L 1049.242 403.500 1057.109 430.500 C 1061.435 445.350, 1065.717 459.863, 1066.625 462.750 L 1068.274 468 1115.970 468 C 1142.203 468, 1163.937 467.730, 1164.266 467.400 C 1164.596 467.070, 1164.470 465.833, 1163.986 464.650 C 1163.502 463.468, 1158.324 447.650, 1152.480 429.500 C 1146.636 411.350, 1141.027 394.025, 1140.016 391 C 1139.006 387.975, 1134.293 373.462, 1129.545 358.750 L 1120.911 332 996.699 332 L 872.487 332 871.192 336.250" stroke="none" fill="#fffcfc" fill-rule="evenodd"/><path d="" stroke="none" fill="#fcfcfc" fill-rule="evenodd"/></svg>